<?xml version="1.0" encoding="UTF-8"?>
<!DOCTYPE svg PUBLIC "-//W3C//DTD SVG 1.1//EN" "http://www.w3.org/Graphics/SVG/1.1/DTD/svg11.dtd">
<!-- Creator: CorelDRAW -->
<svg xmlns="http://www.w3.org/2000/svg" xml:space="preserve" width="144.51mm" height="144.51mm" version="1.1" style="shape-rendering:geometricPrecision; text-rendering:geometricPrecision; image-rendering:optimizeQuality; fill-rule:evenodd; clip-rule:evenodd"
viewBox="0 0 13952.72 13952.72"
 xmlns:xlink="http://www.w3.org/1999/xlink"
 xmlns:xodm="http://www.corel.com/coreldraw/odm/2003">
 <defs>
  <style type="text/css">
   <![CDATA[
    .fil0 {fill:black}
   ]]>
  </style>
 </defs>
 <g id="Layer_x0020_1">
  <metadata id="CorelCorpID_0Corel-Layer"/>
  <path class="fil0" d="M4687.24 1280.82c-113.65,214.79 -349.03,479.68 -599.53,981.05 -92.63,185.39 -166.76,334.77 -249.16,541.12 -44.39,111.17 -204.3,485.59 -214.11,603.43 -109.62,-9.12 -222.15,-43.58 -342.74,-66.03 -136.85,-25.47 -249.94,-43.81 -368.35,-67.66 -195.47,-39.37 -593.43,-163.56 -705.98,-166.07 179.56,-268.14 672.93,-734.43 937.77,-942.58 59.5,-46.75 99.86,-74.04 156.21,-116.3 103.53,-77.66 189.32,-145.42 301.05,-216.73 200.96,-128.27 875.36,-532.81 1084.85,-550.24zm4578.23 0c168.34,14.01 585.91,264.85 744.97,345.09 222.8,112.4 456.88,284.02 656.51,433.54 264.19,197.9 406.57,351.1 591.95,498.11l513.69 576.36c-221.67,51.65 -461.04,115.86 -683.23,161.57 -241.75,49.73 -499.6,83.62 -733.84,138.2 -144.81,-301.78 -224.86,-640.48 -472.36,-1135.48 -101.06,-202.12 -183.75,-343.59 -292.18,-525.36l-325.51 -492.03zm-2697.89 -381.52l0 2752.39c-136.5,0 -272.92,0.08 -409.41,0.64l-1225.48 -82.58c-21.71,-0.94 -401.53,-31.69 -405.53,-33.03 -96.85,-32.54 -34.28,-124.01 31.44,-286.15 45.02,-111.09 80.03,-210.75 128.34,-307.71 334.35,-671.18 346.58,-763.35 836.93,-1343.18 225.53,-266.68 684.63,-670.49 1043.72,-700.38zm817.54 2779.65l0 -2779.65c454.88,37.86 1071.1,662.09 1324.62,1046.25 161.39,244.54 325.95,481.7 446.36,752.7l354.63 844.43c-288.24,0 -1109.03,111.63 -1580.4,109.19 -218.46,-1.13 -368.09,12.33 -545.21,27.07zm-4305.72 2888.65l-2234.62 0c0,-467.87 165.18,-1138.59 289.46,-1509.13 81.97,-244.38 150.01,-425.42 247.59,-651.71 41.84,-97.03 96.69,-206.68 145.45,-290.58 58.61,-100.84 105.7,-193.99 162.3,-300.97 149.97,34.94 253.97,76.95 402.91,114.87 304.7,77.57 1018.52,266.66 1286.68,266.66l-299.76 2370.87zm7494.13 -2343.62c448.38,0 1603.28,-354.27 1689.59,-354.27 52.63,0 274.07,470.75 311.47,560.58l250.58 648.71c122.78,365.1 282.75,1026.78 282.75,1488.6l-2234.62 0c-9.21,-110.78 -29.01,-148.45 -27.81,-299.21 0.99,-123.98 1.49,-197.87 -15.01,-312 -78.76,-544.87 -74.94,-820.24 -199.89,-1435.19 -22.09,-108.75 -53.89,-182.74 -57.05,-297.22zm-6349.57 109.01c372.57,31 733.88,98.67 1145.08,108.48 135.19,3.22 135.94,24.71 271.1,28.67 107.57,3.15 216.99,-8.9 323.92,3.1 188.39,21.14 376.7,23.27 603.52,23.27l0 2071.1 -2643.38 0c0,-418.28 162.65,-1948.86 299.76,-2234.61zm3161.16 163.51c444.96,0 871.29,-5.9 1284.88,-50.44l1085.99 -85.82c0,152.65 272.52,1241.81 272.52,2207.37l-2643.38 0 0 -2071.1zm-6540.34 2888.65l2234.62 0 107.4 1173.4c28.27,198.2 54.18,372.19 86.91,567.13 27.61,164.46 91.85,385.13 105.45,548.59 -419.55,34.91 -1664.29,374.88 -1744.09,381.52l-273.28 -571.52c-251.12,-572.75 -517.02,-1441.86 -517.02,-2099.12zm11445.59 2697.89c-117.33,-2.62 -1380.4,-374.02 -1716.85,-381.52 3.4,-152.62 76.84,-409.37 101.58,-552.45 84.02,-485.7 97.15,-682.62 148.3,-1159.76 17.86,-166.6 13.6,-448.43 49.88,-604.15l2234.62 0c0,677.55 -249.98,1489.13 -517.03,2099.11 -99.73,227.82 -189.81,389.55 -300.52,598.78zm-8366.18 -2697.89l2643.38 0 0 2016.6 -2318.56 150.98c-65.61,-16.78 -30.51,3.5 -52.39,-66.97 -91.38,-294.29 -195.5,-1186.61 -237.83,-1508.45l-34.61 -592.16zm3460.93 2016.6l0 -2016.6 2643.38 0 -31.21 568.32c-65.07,602.62 -112.33,914.84 -231.53,1485.33 -21.76,104.15 18.22,71.13 -51.49,113.86 -38.9,23.85 -1004.24,-84.64 -1131.54,-94.97l-898.74 -27.81c-139.03,-4.15 -149.64,-28.14 -298.88,-28.14zm-2915.9 953.81c343.48,0 701.85,-43.02 1012.29,-77.78l1086.07 -31.22 0 2779.64c-479.97,-230.3 -281.62,-61.18 -747.7,-424.11 -617.08,-480.53 -992.9,-1310.06 -1284.59,-2012.82 -38.38,-92.47 -62.88,-118.5 -66.07,-233.69zm2915.9 2670.63l0 -2779.64 1576.25 86.1c139.53,14.57 369.43,50.16 522.11,50.16 -25.2,302.84 -604.47,1341.18 -778.88,1591.99 -49.68,71.44 -73.64,90.28 -120.71,151.8 -212.43,277.7 -475.15,540.58 -780.84,717.99 -141.34,82.04 -278.19,114.56 -417.92,181.6zm-2643.38 -327.01c-113.45,-26.44 -272.33,-105.51 -389.4,-155.63 -147.85,-63.29 -245.97,-133.04 -373.49,-198.79 -260.65,-134.39 -596.88,-369.97 -833.71,-556.1l-856.08 -833.51c-49.43,-64.18 -93.26,-99.44 -136.2,-163.57 268.11,-62.47 1195.79,-299.76 1471.57,-299.76 15.87,190.73 376.84,1014.53 472.18,1190.16 52.02,95.85 91.11,163.66 145.9,262.86 50.78,91.92 97.3,165.81 155.7,253.07l343.53 501.27zm4469.23 0c44.43,-83.98 428.05,-614.86 645.08,-1017.25 99.75,-184.94 457.47,-1012.76 472.23,-1190.12 118.41,56.82 544.67,107.66 724.44,147.61 252.95,56.22 477.91,123.04 719.89,179.41 -64.45,96.24 -165.36,206.78 -252.42,292.61 -164.73,162.42 -280.97,332.23 -549.35,540.7 -415.9,323.05 -849.34,659.7 -1351.44,883.17 -106.33,47.33 -298.35,138.22 -408.42,163.87zm-2609.73 -12699.16l752.35 0c440.87,24.09 885.43,90.44 1329.04,201.32 234.24,58.55 429.2,120.46 647.87,196.92 555.92,194.36 1209.95,535.7 1667.6,866.77 1368.26,989.88 2350.71,2367.91 2758.73,4026.88 113.33,460.77 178.14,930.36 195.87,1400.82l0 533.66c-26.79,715.64 -161.26,1426.36 -398.24,2104.14 -72.39,207.06 -152.42,411.61 -246.51,598.28 -815.41,1617.66 -1776.89,2577.64 -3397.22,3388.38 -819.61,410.1 -1820.7,621.92 -2828.42,635.54l-213.52 0c-1013.26,-14.45 -2020.78,-229.34 -2844.89,-644.74 -1617.66,-815.41 -2577.64,-1776.89 -3388.38,-3397.22 -483.3,-965.9 -635.54,-2021.46 -635.54,-3125.15l0 0c0,-1315.05 505.07,-2780.56 1265.01,-3831 1281.53,-1771.41 3234.73,-2840.83 5336.23,-2954.6z"/>
 </g>
</svg>
